<?xml version="1.0" encoding="UTF-8" standalone="no"?><svg xmlns="http://www.w3.org/2000/svg" xmlns:xlink="http://www.w3.org/1999/xlink" contentScriptType="application/ecmascript" contentStyleType="text/css" height="374px" preserveAspectRatio="none" style="width:343px;height:374px;" version="1.1" viewBox="0 0 343 374" width="343px" zoomAndPan="magnify"><defs><filter height="300%" id="f1ur95a8rdkux6" width="300%" x="-1" y="-1"><feGaussianBlur result="blurOut" stdDeviation="2.0"/><feColorMatrix in="blurOut" result="blurOut2" type="matrix" values="0 0 0 0 0 0 0 0 0 0 0 0 0 0 0 0 0 0 .4 0"/><feOffset dx="4.0" dy="4.0" in="blurOut2" result="blurOut3"/><feBlend in="SourceGraphic" in2="blurOut3" mode="normal"/></filter></defs><g><!--cluster net.zarski.conference.ci.plantshop--><polygon fill="#FFFFFF" filter="url(#f1ur95a8rdkux6)" points="14,16,289,16,296,38.29,321,38.29,321,362,14,362,14,16" style="stroke: #000000; stroke-width: 1.5;"/><line style="stroke: #000000; stroke-width: 1.5;" x1="14" x2="296" y1="38.29" y2="38.29"/><text fill="#000000" font-family="sans-serif" font-size="14" font-weight="bold" lengthAdjust="spacingAndGlyphs" textLength="269" x="18" y="31.3027">net.zarski.conference.ci.plantshop</text><!--class net.zarski.conference.ci.plantshop.Store--><rect fill="#FEFECE" filter="url(#f1ur95a8rdkux6)" height="86.3979" id="net.zarski.conference.ci.plantshop.Store" style="stroke: #A80036; stroke-width: 1.5;" width="146" x="167" y="43"/><ellipse cx="221.25" cy="59" fill="#ADD1B2" rx="11" ry="11" style="stroke: #A80036; stroke-width: 1.0;"/><path d="M221.3438,65.3125 Q218.4844,65.3125 216.9219,63.625 Q215.3594,61.9375 215.3594,58.8594 Q215.3594,55.7969 216.9531,54.1016 Q218.5469,52.4063 221.4375,52.4063 Q224.0781,52.4063 226.2188,52.9531 L226.2188,54.8906 Q222.7813,53.7031 221.4063,53.7031 Q220.4063,53.7031 219.3125,55.0625 Q218.2188,56.4219 218.2188,58.875 Q218.2188,61.2344 219.3906,62.5938 Q220.5625,63.9531 221.5781,63.9531 Q223.3281,63.9531 226.2031,62.4531 L226.2031,64.375 Q224.5,65.3125 221.3438,65.3125 Z "/><text fill="#000000" font-family="sans-serif" font-size="12" lengthAdjust="spacingAndGlyphs" textLength="29" x="241.75" y="63.4209">Store</text><line style="stroke: #A80036; stroke-width: 1.5;" x1="168" x2="312" y1="75" y2="75"/><line style="stroke: #A80036; stroke-width: 1.5;" x1="168" x2="312" y1="83" y2="83"/><ellipse cx="178" cy="94.8997" fill="#84BE84" rx="3" ry="3" style="stroke: #038048; stroke-width: 1.0;"/><text fill="#000000" font-family="sans-serif" font-size="11" lengthAdjust="spacingAndGlyphs" textLength="68" x="187" y="97.4521">Store(String)</text><ellipse cx="178" cy="107.699" fill="#84BE84" rx="3" ry="3" style="stroke: #038048; stroke-width: 1.0;"/><text fill="#000000" font-family="sans-serif" font-size="11" lengthAdjust="spacingAndGlyphs" textLength="120" x="187" y="110.2515">getShopName(): String</text><ellipse cx="178" cy="120.4983" fill="#84BE84" rx="3" ry="3" style="stroke: #038048; stroke-width: 1.0;"/><text fill="#000000" font-family="sans-serif" font-size="11" lengthAdjust="spacingAndGlyphs" text-decoration="underline" textLength="104" x="187" y="123.0508">main(String...): void</text><line style="stroke: #000000; stroke-width: 1.0;" x1="187" x2="291" y1="125.0508" y2="125.0508"/><!--class net.zarski.conference.ci.plantshop.ShoppingCart--><rect fill="#FEFECE" filter="url(#f1ur95a8rdkux6)" height="73.5986" id="net.zarski.conference.ci.plantshop.ShoppingCart" style="stroke: #A80036; stroke-width: 1.5;" width="109" x="22.5" y="49"/><ellipse cx="37.5" cy="65" fill="#ADD1B2" rx="11" ry="11" style="stroke: #A80036; stroke-width: 1.0;"/><path d="M37.5938,71.3125 Q34.7344,71.3125 33.1719,69.625 Q31.6094,67.9375 31.6094,64.8594 Q31.6094,61.7969 33.2031,60.1016 Q34.7969,58.4063 37.6875,58.4063 Q40.3281,58.4063 42.4688,58.9531 L42.4688,60.8906 Q39.0313,59.7031 37.6563,59.7031 Q36.6563,59.7031 35.5625,61.0625 Q34.4688,62.4219 34.4688,64.875 Q34.4688,67.2344 35.6406,68.5938 Q36.8125,69.9531 37.8281,69.9531 Q39.5781,69.9531 42.4531,68.4531 L42.4531,70.375 Q40.75,71.3125 37.5938,71.3125 Z "/><text fill="#000000" font-family="sans-serif" font-size="12" lengthAdjust="spacingAndGlyphs" textLength="77" x="51.5" y="69.4209">ShoppingCart</text><line style="stroke: #A80036; stroke-width: 1.5;" x1="23.5" x2="130.5" y1="81" y2="81"/><line style="stroke: #A80036; stroke-width: 1.5;" x1="23.5" x2="130.5" y1="89" y2="89"/><ellipse cx="33.5" cy="100.8997" fill="#84BE84" rx="3" ry="3" style="stroke: #038048; stroke-width: 1.0;"/><text fill="#000000" font-family="sans-serif" font-size="11" lengthAdjust="spacingAndGlyphs" textLength="82" x="42.5" y="103.4521">ShoppingCart()</text><ellipse cx="33.5" cy="113.699" fill="#84BE84" rx="3" ry="3" style="stroke: #038048; stroke-width: 1.0;"/><text fill="#000000" font-family="sans-serif" font-size="11" lengthAdjust="spacingAndGlyphs" textLength="49" x="42.5" y="116.2515">size(): int</text><!--class net.zarski.conference.ci.plantshop.Session--><rect fill="#FEFECE" filter="url(#f1ur95a8rdkux6)" height="86.3979" id="net.zarski.conference.ci.plantshop.Session" style="stroke: #A80036; stroke-width: 1.5;" width="154" x="141" y="268"/><ellipse cx="192.75" cy="284" fill="#ADD1B2" rx="11" ry="11" style="stroke: #A80036; stroke-width: 1.0;"/><path d="M192.8438,290.3125 Q189.9844,290.3125 188.4219,288.625 Q186.8594,286.9375 186.8594,283.8594 Q186.8594,280.7969 188.4531,279.1016 Q190.0469,277.4063 192.9375,277.4063 Q195.5781,277.4063 197.7188,277.9531 L197.7188,279.8906 Q194.2813,278.7031 192.9063,278.7031 Q191.9063,278.7031 190.8125,280.0625 Q189.7188,281.4219 189.7188,283.875 Q189.7188,286.2344 190.8906,287.5938 Q192.0625,288.9531 193.0781,288.9531 Q194.8281,288.9531 197.7031,287.4531 L197.7031,289.375 Q196,290.3125 192.8438,290.3125 Z "/><text fill="#000000" font-family="sans-serif" font-size="12" lengthAdjust="spacingAndGlyphs" textLength="42" x="213.25" y="288.4209">Session</text><line style="stroke: #A80036; stroke-width: 1.5;" x1="142" x2="294" y1="300" y2="300"/><line style="stroke: #A80036; stroke-width: 1.5;" x1="142" x2="294" y1="308" y2="308"/><ellipse cx="152" cy="319.8997" fill="#84BE84" rx="3" ry="3" style="stroke: #038048; stroke-width: 1.0;"/><text fill="#000000" font-family="sans-serif" font-size="11" lengthAdjust="spacingAndGlyphs" textLength="49" x="161" y="322.4521">Session()</text><ellipse cx="152" cy="332.699" fill="#84BE84" rx="3" ry="3" style="stroke: #038048; stroke-width: 1.0;"/><text fill="#000000" font-family="sans-serif" font-size="11" lengthAdjust="spacingAndGlyphs" textLength="128" x="161" y="335.2515">put(String, Object): void</text><ellipse cx="152" cy="345.4983" fill="#84BE84" rx="3" ry="3" style="stroke: #038048; stroke-width: 1.0;"/><text fill="#000000" font-family="sans-serif" font-size="11" lengthAdjust="spacingAndGlyphs" textLength="98" x="161" y="348.0508">get(String): Object</text><!--link net.zarski.conference.ci.plantshop.Store to net.zarski.conference.ci.plantshop.Session--><path d="M235.7842,129.116 C232.0587,167.2174 226.63,222.7389 222.7517,262.4032 " fill="none" id="net.zarski.conference.ci.plantshop.Store-net.zarski.conference.ci.plantshop.Session" style="stroke: #A80036; stroke-width: 1.0;"/><polygon fill="#A80036" points="222.239,267.6469,227.0958,259.0789,222.7256,262.6706,219.1338,258.3004,222.239,267.6469" style="stroke: #A80036; stroke-width: 1.0;"/><text fill="#000000" font-family="sans-serif" font-size="13" lengthAdjust="spacingAndGlyphs" textLength="93" x="230" y="203.3525">currentSession</text><!--
@startuml

    namespace net.zarski.conference.ci.plantshop {

        class Store {
            +Store(String)
            +getShopName(): String
            {static} +main(String...): void
        }

        class ShoppingCart {
            +ShoppingCart()
            +size(): int
        }

        class Session {
            +Session()
            +put(String, Object): void
            +get(String): Object
        }
    }

    net.zarski.conference.ci.plantshop.Store - -> net.zarski.conference.ci.plantshop.Session: currentSession

@enduml

PlantUML version 1.2018.05(Sat May 05 22:00:17 CEST 2018)
(APACHE source distribution)
Java Runtime: Java(TM) SE Runtime Environment
JVM: Java HotSpot(TM) 64-Bit Server VM
Java Version: 10.0.1+10
Operating System: Linux
OS Version: 4.15.0-22-generic
Default Encoding: UTF-8
Language: en
Country: US
--></g></svg>