<?xml version="1.0" encoding="UTF-8" standalone="no"?><svg xmlns="http://www.w3.org/2000/svg" xmlns:xlink="http://www.w3.org/1999/xlink" contentScriptType="application/ecmascript" contentStyleType="text/css" height="374px" preserveAspectRatio="none" style="width:343px;height:374px;" version="1.1" viewBox="0 0 343 374" width="343px" zoomAndPan="magnify"><defs><filter height="300%" id="f1e0ynn4zdrzrd" width="300%" x="-1" y="-1"><feGaussianBlur result="blurOut" stdDeviation="2.0"/><feColorMatrix in="blurOut" result="blurOut2" type="matrix" values="0 0 0 0 0 0 0 0 0 0 0 0 0 0 0 0 0 0 .4 0"/><feOffset dx="4.0" dy="4.0" in="blurOut2" result="blurOut3"/><feBlend in="SourceGraphic" in2="blurOut3" mode="normal"/></filter></defs><g><!--cluster net.zarski.conference.ci.plantshop--><polygon fill="#FFFFFF" filter="url(#f1e0ynn4zdrzrd)" points="14,16,289,16,296,38.29,321,38.29,321,362,14,362,14,16" style="stroke: #000000; stroke-width: 1.5;"/><line style="stroke: #000000; stroke-width: 1.5;" x1="14" x2="296" y1="38.29" y2="38.29"/><text fill="#000000" font-family="sans-serif" font-size="14" font-weight="bold" lengthAdjust="spacingAndGlyphs" textLength="269" x="18" y="31.3027">net.zarski.conference.ci.plantshop</text><!--class net.zarski.conference.ci.plantshop.ShoppingCart--><rect fill="#FEFECE" filter="url(#f1e0ynn4zdrzrd)" height="73.5986" id="net.zarski.conference.ci.plantshop.ShoppingCart" style="stroke: #A80036; stroke-width: 1.5;" width="109" x="203.5" y="49"/><ellipse cx="218.5" cy="65" fill="#ADD1B2" rx="11" ry="11" style="stroke: #A80036; stroke-width: 1.0;"/><path d="M218.5938,71.3125 Q215.7344,71.3125 214.1719,69.625 Q212.6094,67.9375 212.6094,64.8594 Q212.6094,61.7969 214.2031,60.1016 Q215.7969,58.4063 218.6875,58.4063 Q221.3281,58.4063 223.4688,58.9531 L223.4688,60.8906 Q220.0313,59.7031 218.6563,59.7031 Q217.6563,59.7031 216.5625,61.0625 Q215.4688,62.4219 215.4688,64.875 Q215.4688,67.2344 216.6406,68.5938 Q217.8125,69.9531 218.8281,69.9531 Q220.5781,69.9531 223.4531,68.4531 L223.4531,70.375 Q221.75,71.3125 218.5938,71.3125 Z "/><text fill="#000000" font-family="sans-serif" font-size="12" lengthAdjust="spacingAndGlyphs" textLength="77" x="232.5" y="69.4209">ShoppingCart</text><line style="stroke: #A80036; stroke-width: 1.5;" x1="204.5" x2="311.5" y1="81" y2="81"/><line style="stroke: #A80036; stroke-width: 1.5;" x1="204.5" x2="311.5" y1="89" y2="89"/><ellipse cx="214.5" cy="100.8997" fill="#84BE84" rx="3" ry="3" style="stroke: #038048; stroke-width: 1.0;"/><text fill="#000000" font-family="sans-serif" font-size="11" lengthAdjust="spacingAndGlyphs" textLength="82" x="223.5" y="103.4521">ShoppingCart()</text><ellipse cx="214.5" cy="113.699" fill="#84BE84" rx="3" ry="3" style="stroke: #038048; stroke-width: 1.0;"/><text fill="#000000" font-family="sans-serif" font-size="11" lengthAdjust="spacingAndGlyphs" textLength="49" x="223.5" y="116.2515">size(): int</text><!--class net.zarski.conference.ci.plantshop.Session--><rect fill="#FEFECE" filter="url(#f1e0ynn4zdrzrd)" height="86.3979" id="net.zarski.conference.ci.plantshop.Session" style="stroke: #A80036; stroke-width: 1.5;" width="154" x="22" y="268"/><ellipse cx="73.75" cy="284" fill="#ADD1B2" rx="11" ry="11" style="stroke: #A80036; stroke-width: 1.0;"/><path d="M73.8438,290.3125 Q70.9844,290.3125 69.4219,288.625 Q67.8594,286.9375 67.8594,283.8594 Q67.8594,280.7969 69.4531,279.1016 Q71.0469,277.4063 73.9375,277.4063 Q76.5781,277.4063 78.7188,277.9531 L78.7188,279.8906 Q75.2813,278.7031 73.9063,278.7031 Q72.9063,278.7031 71.8125,280.0625 Q70.7188,281.4219 70.7188,283.875 Q70.7188,286.2344 71.8906,287.5938 Q73.0625,288.9531 74.0781,288.9531 Q75.8281,288.9531 78.7031,287.4531 L78.7031,289.375 Q77,290.3125 73.8438,290.3125 Z "/><text fill="#000000" font-family="sans-serif" font-size="12" lengthAdjust="spacingAndGlyphs" textLength="42" x="94.25" y="288.4209">Session</text><line style="stroke: #A80036; stroke-width: 1.5;" x1="23" x2="175" y1="300" y2="300"/><line style="stroke: #A80036; stroke-width: 1.5;" x1="23" x2="175" y1="308" y2="308"/><ellipse cx="33" cy="319.8997" fill="#84BE84" rx="3" ry="3" style="stroke: #038048; stroke-width: 1.0;"/><text fill="#000000" font-family="sans-serif" font-size="11" lengthAdjust="spacingAndGlyphs" textLength="49" x="42" y="322.4521">Session()</text><ellipse cx="33" cy="332.699" fill="#84BE84" rx="3" ry="3" style="stroke: #038048; stroke-width: 1.0;"/><text fill="#000000" font-family="sans-serif" font-size="11" lengthAdjust="spacingAndGlyphs" textLength="128" x="42" y="335.2515">put(String, Object): void</text><ellipse cx="33" cy="345.4983" fill="#84BE84" rx="3" ry="3" style="stroke: #038048; stroke-width: 1.0;"/><text fill="#000000" font-family="sans-serif" font-size="11" lengthAdjust="spacingAndGlyphs" textLength="98" x="42" y="348.0508">get(String): Object</text><!--class net.zarski.conference.ci.plantshop.Shop--><rect fill="#FEFECE" filter="url(#f1e0ynn4zdrzrd)" height="86.3979" id="net.zarski.conference.ci.plantshop.Shop" style="stroke: #A80036; stroke-width: 1.5;" width="146" x="22" y="43"/><ellipse cx="76.75" cy="59" fill="#ADD1B2" rx="11" ry="11" style="stroke: #A80036; stroke-width: 1.0;"/><path d="M76.8438,65.3125 Q73.9844,65.3125 72.4219,63.625 Q70.8594,61.9375 70.8594,58.8594 Q70.8594,55.7969 72.4531,54.1016 Q74.0469,52.4063 76.9375,52.4063 Q79.5781,52.4063 81.7188,52.9531 L81.7188,54.8906 Q78.2813,53.7031 76.9063,53.7031 Q75.9063,53.7031 74.8125,55.0625 Q73.7188,56.4219 73.7188,58.875 Q73.7188,61.2344 74.8906,62.5938 Q76.0625,63.9531 77.0781,63.9531 Q78.8281,63.9531 81.7031,62.4531 L81.7031,64.375 Q80,65.3125 76.8438,65.3125 Z "/><text fill="#000000" font-family="sans-serif" font-size="12" lengthAdjust="spacingAndGlyphs" textLength="28" x="97.25" y="63.4209">Shop</text><line style="stroke: #A80036; stroke-width: 1.5;" x1="23" x2="167" y1="75" y2="75"/><line style="stroke: #A80036; stroke-width: 1.5;" x1="23" x2="167" y1="83" y2="83"/><ellipse cx="33" cy="94.8997" fill="#84BE84" rx="3" ry="3" style="stroke: #038048; stroke-width: 1.0;"/><text fill="#000000" font-family="sans-serif" font-size="11" lengthAdjust="spacingAndGlyphs" textLength="67" x="42" y="97.4521">Shop(String)</text><ellipse cx="33" cy="107.699" fill="#84BE84" rx="3" ry="3" style="stroke: #038048; stroke-width: 1.0;"/><text fill="#000000" font-family="sans-serif" font-size="11" lengthAdjust="spacingAndGlyphs" textLength="120" x="42" y="110.2515">getShopName(): String</text><ellipse cx="33" cy="120.4983" fill="#84BE84" rx="3" ry="3" style="stroke: #038048; stroke-width: 1.0;"/><text fill="#000000" font-family="sans-serif" font-size="11" lengthAdjust="spacingAndGlyphs" text-decoration="underline" textLength="104" x="42" y="123.0508">main(String...): void</text><line style="stroke: #000000; stroke-width: 1.0;" x1="42" x2="146" y1="125.0508" y2="125.0508"/><!--link net.zarski.conference.ci.plantshop.Shop to net.zarski.conference.ci.plantshop.Session--><path d="M95.7665,129.116 C96.4439,167.2174 97.4309,222.7389 98.1361,262.4032 " fill="none" id="net.zarski.conference.ci.plantshop.Shop-net.zarski.conference.ci.plantshop.Session" style="stroke: #A80036; stroke-width: 1.0;"/><polygon fill="#A80036" points="98.2293,267.6469,102.0685,258.5771,98.1403,262.6477,94.0697,258.7195,98.2293,267.6469" style="stroke: #A80036; stroke-width: 1.0;"/><text fill="#000000" font-family="sans-serif" font-size="13" lengthAdjust="spacingAndGlyphs" textLength="93" x="98" y="203.3525">currentSession</text><!--
@startuml

    namespace net.zarski.conference.ci.plantshop {

        class ShoppingCart {
            +ShoppingCart()
            +size(): int
        }

        class Session {
            +Session()
            +put(String, Object): void
            +get(String): Object
        }

        class Shop {
            +Shop(String)
            +getShopName(): String
            {static} +main(String...): void
        }
    }

    net.zarski.conference.ci.plantshop.Shop - -> net.zarski.conference.ci.plantshop.Session: currentSession

@enduml

PlantUML version 1.2018.05(Sat May 05 22:00:17 CEST 2018)
(APACHE source distribution)
Java Runtime: Java(TM) SE Runtime Environment
JVM: Java HotSpot(TM) 64-Bit Server VM
Java Version: 10.0.1+10
Operating System: Linux
OS Version: 4.15.0-22-generic
Default Encoding: UTF-8
Language: en
Country: US
--></g></svg>