<?xml version="1.0" encoding="UTF-8" standalone="no"?><svg xmlns="http://www.w3.org/2000/svg" xmlns:xlink="http://www.w3.org/1999/xlink" contentScriptType="application/ecmascript" contentStyleType="text/css" height="149px" preserveAspectRatio="none" style="width:321px;height:149px;" version="1.1" viewBox="0 0 321 149" width="321px" zoomAndPan="magnify"><defs><filter height="300%" id="fbxpt84dlwn83" width="300%" x="-1" y="-1"><feGaussianBlur result="blurOut" stdDeviation="2.0"/><feColorMatrix in="blurOut" result="blurOut2" type="matrix" values="0 0 0 0 0 0 0 0 0 0 0 0 0 0 0 0 0 0 .4 0"/><feOffset dx="4.0" dy="4.0" in="blurOut2" result="blurOut3"/><feBlend in="SourceGraphic" in2="blurOut3" mode="normal"/></filter></defs><g><!--cluster net.zarski.conference.ci.plantshop--><polygon fill="#FFFFFF" filter="url(#fbxpt84dlwn83)" points="14,16,289,16,296,38.29,299,38.29,299,137,14,137,14,16" style="stroke: #000000; stroke-width: 1.5;"/><line style="stroke: #000000; stroke-width: 1.5;" x1="14" x2="296" y1="38.29" y2="38.29"/><text fill="#000000" font-family="sans-serif" font-size="14" font-weight="bold" lengthAdjust="spacingAndGlyphs" textLength="269" x="18" y="31.3027">net.zarski.conference.ci.plantshop</text><!--class net.zarski.conference.ci.plantshop.Session--><rect fill="#FEFECE" filter="url(#fbxpt84dlwn83)" height="86.3979" id="net.zarski.conference.ci.plantshop.Session" style="stroke: #A80036; stroke-width: 1.5;" width="154" x="79" y="43"/><ellipse cx="130.75" cy="59" fill="#ADD1B2" rx="11" ry="11" style="stroke: #A80036; stroke-width: 1.0;"/><path d="M130.8438,65.3125 Q127.9844,65.3125 126.4219,63.625 Q124.8594,61.9375 124.8594,58.8594 Q124.8594,55.7969 126.4531,54.1016 Q128.0469,52.4063 130.9375,52.4063 Q133.5781,52.4063 135.7188,52.9531 L135.7188,54.8906 Q132.2813,53.7031 130.9063,53.7031 Q129.9063,53.7031 128.8125,55.0625 Q127.7188,56.4219 127.7188,58.875 Q127.7188,61.2344 128.8906,62.5938 Q130.0625,63.9531 131.0781,63.9531 Q132.8281,63.9531 135.7031,62.4531 L135.7031,64.375 Q134,65.3125 130.8438,65.3125 Z "/><text fill="#000000" font-family="sans-serif" font-size="12" lengthAdjust="spacingAndGlyphs" textLength="42" x="151.25" y="63.4209">Session</text><line style="stroke: #A80036; stroke-width: 1.5;" x1="80" x2="232" y1="75" y2="75"/><line style="stroke: #A80036; stroke-width: 1.5;" x1="80" x2="232" y1="83" y2="83"/><ellipse cx="90" cy="94.8997" fill="#84BE84" rx="3" ry="3" style="stroke: #038048; stroke-width: 1.0;"/><text fill="#000000" font-family="sans-serif" font-size="11" lengthAdjust="spacingAndGlyphs" textLength="49" x="99" y="97.4521">Session()</text><ellipse cx="90" cy="107.699" fill="#84BE84" rx="3" ry="3" style="stroke: #038048; stroke-width: 1.0;"/><text fill="#000000" font-family="sans-serif" font-size="11" lengthAdjust="spacingAndGlyphs" textLength="128" x="99" y="110.2515">put(String, Object): void</text><ellipse cx="90" cy="120.4983" fill="#84BE84" rx="3" ry="3" style="stroke: #038048; stroke-width: 1.0;"/><text fill="#000000" font-family="sans-serif" font-size="11" lengthAdjust="spacingAndGlyphs" textLength="98" x="99" y="123.0508">get(String): Object</text><!--
@startuml

    namespace net.zarski.conference.ci.plantshop {
        class Session {
            +Session()
            +put(String, Object): void
            +get(String): Object
        }
    }

@enduml

PlantUML version 1.2018.05(Sat May 05 22:00:17 CEST 2018)
(APACHE source distribution)
Java Runtime: Java(TM) SE Runtime Environment
JVM: Java HotSpot(TM) 64-Bit Server VM
Java Version: 10.0.1+10
Operating System: Linux
OS Version: 4.15.0-22-generic
Default Encoding: UTF-8
Language: en
Country: US
--></g></svg>