<?xml version="1.0" encoding="UTF-8" standalone="no"?><svg xmlns="http://www.w3.org/2000/svg" xmlns:xlink="http://www.w3.org/1999/xlink" contentScriptType="application/ecmascript" contentStyleType="text/css" height="162px" preserveAspectRatio="none" style="width:321px;height:162px;" version="1.1" viewBox="0 0 321 162" width="321px" zoomAndPan="magnify"><defs><filter height="300%" id="f1glj70yko6fsd" width="300%" x="-1" y="-1"><feGaussianBlur result="blurOut" stdDeviation="2.0"/><feColorMatrix in="blurOut" result="blurOut2" type="matrix" values="0 0 0 0 0 0 0 0 0 0 0 0 0 0 0 0 0 0 .4 0"/><feOffset dx="4.0" dy="4.0" in="blurOut2" result="blurOut3"/><feBlend in="SourceGraphic" in2="blurOut3" mode="normal"/></filter></defs><g><!--cluster net.zarski.conference.ci.plantshop--><polygon fill="#FFFFFF" filter="url(#f1glj70yko6fsd)" points="14,16,289,16,296,38.29,299,38.29,299,150,14,150,14,16" style="stroke: #000000; stroke-width: 1.5;"/><line style="stroke: #000000; stroke-width: 1.5;" x1="14" x2="296" y1="38.29" y2="38.29"/><text fill="#000000" font-family="sans-serif" font-size="14" font-weight="bold" lengthAdjust="spacingAndGlyphs" textLength="269" x="18" y="31.3027">net.zarski.conference.ci.plantshop</text><!--class net.zarski.conference.ci.plantshop.Store--><rect fill="#FEFECE" filter="url(#f1glj70yko6fsd)" height="99.1973" id="net.zarski.conference.ci.plantshop.Store" style="stroke: #A80036; stroke-width: 1.5;" width="181" x="65.5" y="43"/><ellipse cx="137.25" cy="59" fill="#ADD1B2" rx="11" ry="11" style="stroke: #A80036; stroke-width: 1.0;"/><path d="M137.3438,65.3125 Q134.4844,65.3125 132.9219,63.625 Q131.3594,61.9375 131.3594,58.8594 Q131.3594,55.7969 132.9531,54.1016 Q134.5469,52.4063 137.4375,52.4063 Q140.0781,52.4063 142.2188,52.9531 L142.2188,54.8906 Q138.7813,53.7031 137.4063,53.7031 Q136.4063,53.7031 135.3125,55.0625 Q134.2188,56.4219 134.2188,58.875 Q134.2188,61.2344 135.3906,62.5938 Q136.5625,63.9531 137.5781,63.9531 Q139.3281,63.9531 142.2031,62.4531 L142.2031,64.375 Q140.5,65.3125 137.3438,65.3125 Z "/><text fill="#000000" font-family="sans-serif" font-size="12" lengthAdjust="spacingAndGlyphs" textLength="29" x="157.75" y="63.4209">Store</text><line style="stroke: #A80036; stroke-width: 1.5;" x1="66.5" x2="245.5" y1="75" y2="75"/><line style="stroke: #A80036; stroke-width: 1.5;" x1="66.5" x2="245.5" y1="83" y2="83"/><ellipse cx="76.5" cy="94.8997" fill="#84BE84" rx="3" ry="3" style="stroke: #038048; stroke-width: 1.0;"/><text fill="#000000" font-family="sans-serif" font-size="11" lengthAdjust="spacingAndGlyphs" textLength="68" x="85.5" y="97.4521">Store(String)</text><ellipse cx="76.5" cy="107.699" fill="#84BE84" rx="3" ry="3" style="stroke: #038048; stroke-width: 1.0;"/><text fill="#000000" font-family="sans-serif" font-size="11" lengthAdjust="spacingAndGlyphs" textLength="120" x="85.5" y="110.2515">getShopName(): String</text><ellipse cx="76.5" cy="120.4983" fill="#84BE84" rx="3" ry="3" style="stroke: #038048; stroke-width: 1.0;"/><text fill="#000000" font-family="sans-serif" font-size="11" lengthAdjust="spacingAndGlyphs" textLength="155" x="85.5" y="123.0508">getCurrentSession(): Session</text><ellipse cx="76.5" cy="133.2976" fill="#84BE84" rx="3" ry="3" style="stroke: #038048; stroke-width: 1.0;"/><text fill="#000000" font-family="sans-serif" font-size="11" lengthAdjust="spacingAndGlyphs" text-decoration="underline" textLength="104" x="85.5" y="135.8501">main(String...): void</text><line style="stroke: #000000; stroke-width: 1.0;" x1="85.5" x2="189.5" y1="137.8501" y2="137.8501"/><!--
@startuml

    namespace net.zarski.conference.ci.plantshop {
        class Store {
            +Store(String)
            +getShopName(): String
            +getCurrentSession(): Session
            {static} +main(String...): void
        }
    }

@enduml

PlantUML version 1.2018.05(Sat May 05 22:00:17 CEST 2018)
(APACHE source distribution)
Java Runtime: Java(TM) SE Runtime Environment
JVM: Java HotSpot(TM) 64-Bit Server VM
Java Version: 10.0.1+10
Operating System: Linux
OS Version: 4.15.0-22-generic
Default Encoding: UTF-8
Language: en
Country: US
--></g></svg>